<svg width="70" height="70" viewBox="0 0 70 70" fill="none" xmlns="http://www.w3.org/2000/svg">
<g filter="url(#filter0_d_1_1362)">
<path d="M49.5827 19.4167L20.416 48.5834" stroke="#FF8126" stroke-width="4" stroke-linecap="round" stroke-linejoin="round"/>
<path d="M23.5423 27.7499C26.4188 27.7499 28.7507 25.4181 28.7507 22.5416C28.7507 19.6651 26.4188 17.3333 23.5423 17.3333C20.6658 17.3333 18.334 19.6651 18.334 22.5416C18.334 25.4181 20.6658 27.7499 23.5423 27.7499Z" stroke="#FF8126" stroke-width="4" stroke-linecap="round" stroke-linejoin="round"/>
<path d="M46.4583 50.6667C49.3348 50.6667 51.6667 48.3348 51.6667 45.4583C51.6667 42.5819 49.3348 40.25 46.4583 40.25C43.5819 40.25 41.25 42.5819 41.25 45.4583C41.25 48.3348 43.5819 50.6667 46.4583 50.6667Z" stroke="#FF8126" stroke-width="4" stroke-linecap="round" stroke-linejoin="round"/>
</g>
<defs>
<filter id="filter0_d_1_1362" x="-6" y="-6" width="82" height="82" filterUnits="userSpaceOnUse" color-interpolation-filters="sRGB">
<feFlood flood-opacity="0" result="BackgroundImageFix"/>
<feColorMatrix in="SourceAlpha" type="matrix" values="0 0 0 0 0 0 0 0 0 0 0 0 0 0 0 0 0 0 127 0" result="hardAlpha"/>
<feOffset dy="1"/>
<feGaussianBlur stdDeviation="8"/>
<feColorMatrix type="matrix" values="0 0 0 0 0.0666667 0 0 0 0 0.0666667 0 0 0 0 0.0666667 0 0 0 0.08 0"/>
<feBlend mode="normal" in2="BackgroundImageFix" result="effect1_dropShadow_1_1362"/>
<feBlend mode="normal" in="SourceGraphic" in2="effect1_dropShadow_1_1362" result="shape"/>
</filter>
</defs>
</svg>
