<svg width="72" height="49" viewBox="0 0 72 49" fill="none" xmlns="http://www.w3.org/2000/svg">
<path d="M54.3336 46.8667C63.5336 42.0667 68.8669 34.7333 71.0003 23.8C73.5336 10.3333 67.0003 1 54.8669 1C49.6669 1 47.5336 1.66667 44.2003 4.73333C40.6003 7.93333 39.8003 9.66667 39.2669 16.0667C38.7336 23.2667 38.8669 23.8 43.4003 28.3333C46.8669 31.8 49.2669 33 52.4669 33C56.6003 33 56.7336 33 54.3336 35.6667C53.0003 37.1333 51.2669 38.3333 50.3336 38.3333C49.4003 38.3333 47.6669 39.5333 46.2003 41.1333C44.3336 43.1333 44.0669 44.3333 45.1336 46.0667C47.1336 49.1333 49.6669 49.4 54.3336 46.8667Z" fill="#FF8126"/>
<path d="M19.2669 45.1333C34.0669 35.7999 38.6002 12.4666 27.2669 3.66659C23.2669 0.466591 13.9335 0.0665908 8.6002 2.86659C2.46687 6.06659 -0.466461 14.1999 1.53354 22.0666C3.4002 28.7333 6.73354 31.6666 13.5335 32.5999C19.8002 33.3999 19.5335 34.5999 12.2002 38.3333C6.86687 41.1333 5.53354 44.3333 8.6002 47.3999C11.0002 49.7999 12.4669 49.3999 19.2669 45.1333Z" fill="#FF8126"/>
</svg>
