<svg width="24" height="25" viewBox="0 0 24 25" fill="none" xmlns="http://www.w3.org/2000/svg">
<path d="M16 3.66675H1V16.6667H16V3.66675Z" stroke="#828282" stroke-width="2" stroke-linecap="round" stroke-linejoin="round"/>
<path d="M16 8.66675H20L23 11.6667V16.6667H16V8.66675Z" stroke="#828282" stroke-width="2" stroke-linecap="round" stroke-linejoin="round"/>
<path d="M5.5 21.6667C6.88071 21.6667 8 20.5475 8 19.1667C8 17.786 6.88071 16.6667 5.5 16.6667C4.11929 16.6667 3 17.786 3 19.1667C3 20.5475 4.11929 21.6667 5.5 21.6667Z" stroke="#828282" stroke-width="2" stroke-linecap="round" stroke-linejoin="round"/>
<path d="M18.5 21.6667C19.8807 21.6667 21 20.5475 21 19.1667C21 17.786 19.8807 16.6667 18.5 16.6667C17.1193 16.6667 16 17.786 16 19.1667C16 20.5475 17.1193 21.6667 18.5 21.6667Z" stroke="#828282" stroke-width="2" stroke-linecap="round" stroke-linejoin="round"/>
</svg>
