<svg width="40" height="40" viewBox="0 0 40 40" fill="none" xmlns="http://www.w3.org/2000/svg">
<path d="M34.7342 7.68345C33.8829 6.83179 32.8722 6.15619 31.7598 5.69525C30.6473 5.23432 29.455 4.99707 28.2509 4.99707C27.0467 4.99707 25.8544 5.23432 24.7419 5.69525C23.6295 6.15619 22.6188 6.83179 21.7675 7.68345L20.0009 9.45011L18.2342 7.68345C16.5147 5.96396 14.1826 4.99796 11.7508 4.99796C9.31913 4.99796 6.987 5.96396 5.26752 7.68345C3.54803 9.40293 2.58203 11.7351 2.58203 14.1668C2.58203 16.5985 3.54803 18.9306 5.26752 20.6501L7.03418 22.4168L20.0009 35.3834L32.9675 22.4168L34.7342 20.6501C35.5858 19.7989 36.2614 18.7881 36.7224 17.6757C37.1833 16.5633 37.4206 15.3709 37.4206 14.1668C37.4206 12.9626 37.1833 11.7703 36.7224 10.6579C36.2614 9.54542 35.5858 8.53471 34.7342 7.68345Z" stroke="#828282" stroke-width="2" stroke-linecap="round" stroke-linejoin="round"/>
</svg>
