<svg width="72" height="49" viewBox="0 0 72 49" fill="none" xmlns="http://www.w3.org/2000/svg">
<path d="M17.6664 2.79984C8.46639 7.59983 3.13305 14.9332 0.99972 25.8665C-1.53361 39.3332 4.99972 48.6665 17.1331 48.6665C22.3331 48.6665 24.4664 47.9998 27.7997 44.9332C31.3997 41.7332 32.1997 39.9998 32.7331 33.5998C33.2664 26.3998 33.1331 25.8665 28.5997 21.3332C25.1331 17.8665 22.7331 16.6665 19.5331 16.6665C15.3997 16.6665 15.2664 16.6665 17.6664 13.9998C18.9997 12.5332 20.7331 11.3332 21.6664 11.3332C22.5997 11.3332 24.3331 10.1332 25.7997 8.53317C27.6664 6.53317 27.9331 5.33317 26.8664 3.59983C24.8664 0.533169 22.3331 0.266502 17.6664 2.79984Z" fill="#FF8126"/>
<path d="M52.7331 4.53325C37.9331 13.8666 33.3998 37.1999 44.7331 45.9999C48.7331 49.1999 58.0665 49.5999 63.3998 46.7999C69.5331 43.5999 72.4665 35.4666 70.4665 27.5999C68.5998 20.9332 65.2665 17.9999 58.4665 17.0666C52.1998 16.2666 52.4665 15.0666 59.7998 11.3332C65.1331 8.53325 66.4665 5.33324 63.3998 2.26658C60.9998 -0.133423 59.5331 0.266579 52.7331 4.53325Z" fill="#FF8126"/>
</svg>
