<svg width="40" height="41" viewBox="0 0 40 41" fill="none" xmlns="http://www.w3.org/2000/svg">
<path d="M14.9987 37.4808C15.9192 37.4808 16.6654 36.7346 16.6654 35.8141C16.6654 34.8937 15.9192 34.1475 14.9987 34.1475C14.0782 34.1475 13.332 34.8937 13.332 35.8141C13.332 36.7346 14.0782 37.4808 14.9987 37.4808Z" stroke="#828282" stroke-width="2" stroke-linecap="round" stroke-linejoin="round"/>
<path d="M33.3346 37.4808C34.2551 37.4808 35.0013 36.7346 35.0013 35.8141C35.0013 34.8937 34.2551 34.1475 33.3346 34.1475C32.4142 34.1475 31.668 34.8937 31.668 35.8141C31.668 36.7346 32.4142 37.4808 33.3346 37.4808Z" stroke="#828282" stroke-width="2" stroke-linecap="round" stroke-linejoin="round"/>
<path d="M1.66797 2.48145H8.33464L12.8013 24.7981C12.9537 25.5654 13.3711 26.2547 13.9805 26.7453C14.5899 27.2358 15.3525 27.4964 16.1346 27.4814H32.3346C33.1168 27.4964 33.8793 27.2358 34.4887 26.7453C35.0981 26.2547 35.5156 25.5654 35.668 24.7981L38.3346 10.8148H10.0013" stroke="#828282" stroke-width="2" stroke-linecap="round" stroke-linejoin="round"/>
</svg>
