<svg width="16" height="16" viewBox="0 0 16 16" fill="none" xmlns="http://www.w3.org/2000/svg">
<circle cx="8" cy="8" r="8" fill="#E3E3E3"/>
<path d="M7.38053 9.056C7.38053 8.86933 7.40986 8.704 7.46853 8.56C7.53253 8.416 7.60986 8.288 7.70053 8.176C7.79653 8.064 7.89786 7.96 8.00453 7.864C8.1112 7.768 8.20986 7.67733 8.30053 7.592C8.39653 7.50133 8.47386 7.408 8.53253 7.312C8.59653 7.216 8.62853 7.10933 8.62853 6.992C8.62853 6.8 8.54853 6.64533 8.38853 6.528C8.23386 6.41067 8.02586 6.352 7.76453 6.352C7.51386 6.352 7.28986 6.40533 7.09253 6.512C6.8952 6.61333 6.73253 6.75733 6.60453 6.944L5.63653 6.376C5.84986 6.05067 6.14586 5.792 6.52453 5.6C6.9032 5.40267 7.36186 5.304 7.90053 5.304C8.30053 5.304 8.65253 5.36267 8.95653 5.48C9.26053 5.592 9.49786 5.75733 9.66853 5.976C9.84453 6.19467 9.93253 6.464 9.93253 6.784C9.93253 6.992 9.90053 7.176 9.83653 7.336C9.77253 7.496 9.68986 7.63467 9.58853 7.752C9.4872 7.86933 9.37786 7.97867 9.26053 8.08C9.14853 8.18133 9.04186 8.28 8.94053 8.376C8.8392 8.472 8.75386 8.57333 8.68453 8.68C8.62053 8.78667 8.58853 8.912 8.58853 9.056H7.38053ZM7.98853 11.064C7.76453 11.064 7.58053 10.992 7.43653 10.848C7.29253 10.704 7.22053 10.5333 7.22053 10.336C7.22053 10.1333 7.29253 9.96533 7.43653 9.832C7.58053 9.69333 7.76453 9.624 7.98853 9.624C8.21786 9.624 8.40186 9.69333 8.54053 9.832C8.68453 9.96533 8.75653 10.1333 8.75653 10.336C8.75653 10.5333 8.68453 10.704 8.54053 10.848C8.40186 10.992 8.21786 11.064 7.98853 11.064Z" fill="white"/>
</svg>
